<mxfile host="app.diagrams.net" modified="2023-06-18T19:59:54.985Z" agent="Mozilla/5.0 (X11; Ubuntu; Linux x86_64; rv:109.0) Gecko/20100101 Firefox/113.0" etag="Y6NU8tDGA_q3_TdSgyX0" version="21.5.0" type="device">
  <diagram name="Página-1" id="wzl2iM9PVvUTt73wQBI-">
    <mxGraphModel dx="933" dy="660" grid="1" gridSize="10" guides="1" tooltips="1" connect="1" arrows="1" fold="1" page="1" pageScale="1" pageWidth="827" pageHeight="1169" math="0" shadow="0">
      <root>
        <mxCell id="0" />
        <mxCell id="1" parent="0" />
        <mxCell id="fM9ERTei-pjhAEtj_w_p-50" style="edgeStyle=orthogonalEdgeStyle;rounded=0;orthogonalLoop=1;jettySize=auto;html=1;entryX=0.5;entryY=0;entryDx=0;entryDy=0;" edge="1" parent="1" source="fM9ERTei-pjhAEtj_w_p-39" target="fM9ERTei-pjhAEtj_w_p-40">
          <mxGeometry relative="1" as="geometry" />
        </mxCell>
        <mxCell id="fM9ERTei-pjhAEtj_w_p-39" value="&lt;pre&gt;&lt;code class=&quot;!whitespace-pre hljs language-lua&quot;&gt;Iniciar Sistema&lt;/code&gt;&lt;/pre&gt;" style="rounded=0;whiteSpace=wrap;html=1;" vertex="1" parent="1">
          <mxGeometry x="320" y="120" width="170" height="60" as="geometry" />
        </mxCell>
        <mxCell id="fM9ERTei-pjhAEtj_w_p-51" style="edgeStyle=orthogonalEdgeStyle;rounded=0;orthogonalLoop=1;jettySize=auto;html=1;entryX=0.5;entryY=0;entryDx=0;entryDy=0;" edge="1" parent="1" source="fM9ERTei-pjhAEtj_w_p-40" target="fM9ERTei-pjhAEtj_w_p-41">
          <mxGeometry relative="1" as="geometry" />
        </mxCell>
        <mxCell id="fM9ERTei-pjhAEtj_w_p-40" value="&lt;pre&gt;&lt;code class=&quot;!whitespace-pre hljs language-lua&quot;&gt;Autenticar Administrador&lt;/code&gt;&lt;/pre&gt;" style="rounded=0;whiteSpace=wrap;html=1;" vertex="1" parent="1">
          <mxGeometry x="290" y="260" width="230" height="60" as="geometry" />
        </mxCell>
        <mxCell id="fM9ERTei-pjhAEtj_w_p-53" style="edgeStyle=orthogonalEdgeStyle;rounded=0;orthogonalLoop=1;jettySize=auto;html=1;exitX=0.75;exitY=1;exitDx=0;exitDy=0;entryX=0.5;entryY=0;entryDx=0;entryDy=0;" edge="1" parent="1" source="fM9ERTei-pjhAEtj_w_p-41" target="fM9ERTei-pjhAEtj_w_p-45">
          <mxGeometry relative="1" as="geometry" />
        </mxCell>
        <mxCell id="fM9ERTei-pjhAEtj_w_p-54" style="edgeStyle=orthogonalEdgeStyle;rounded=0;orthogonalLoop=1;jettySize=auto;html=1;exitX=0.75;exitY=1;exitDx=0;exitDy=0;entryX=0.5;entryY=0;entryDx=0;entryDy=0;" edge="1" parent="1" source="fM9ERTei-pjhAEtj_w_p-41" target="fM9ERTei-pjhAEtj_w_p-44">
          <mxGeometry relative="1" as="geometry" />
        </mxCell>
        <mxCell id="fM9ERTei-pjhAEtj_w_p-55" style="edgeStyle=orthogonalEdgeStyle;rounded=0;orthogonalLoop=1;jettySize=auto;html=1;exitX=0.25;exitY=1;exitDx=0;exitDy=0;entryX=0.5;entryY=0;entryDx=0;entryDy=0;" edge="1" parent="1" source="fM9ERTei-pjhAEtj_w_p-41" target="fM9ERTei-pjhAEtj_w_p-43">
          <mxGeometry relative="1" as="geometry" />
        </mxCell>
        <mxCell id="fM9ERTei-pjhAEtj_w_p-56" style="edgeStyle=orthogonalEdgeStyle;rounded=0;orthogonalLoop=1;jettySize=auto;html=1;exitX=0.25;exitY=1;exitDx=0;exitDy=0;entryX=0.5;entryY=0;entryDx=0;entryDy=0;" edge="1" parent="1" source="fM9ERTei-pjhAEtj_w_p-41" target="fM9ERTei-pjhAEtj_w_p-42">
          <mxGeometry relative="1" as="geometry" />
        </mxCell>
        <mxCell id="fM9ERTei-pjhAEtj_w_p-41" value="&lt;pre&gt;&lt;code class=&quot;!whitespace-pre hljs language-lua&quot;&gt;Menu Administrador &lt;/code&gt;&lt;/pre&gt;" style="rounded=0;whiteSpace=wrap;html=1;" vertex="1" parent="1">
          <mxGeometry x="290" y="390" width="230" height="60" as="geometry" />
        </mxCell>
        <mxCell id="fM9ERTei-pjhAEtj_w_p-57" style="edgeStyle=orthogonalEdgeStyle;rounded=0;orthogonalLoop=1;jettySize=auto;html=1;exitX=0.5;exitY=1;exitDx=0;exitDy=0;entryX=0.341;entryY=-0.017;entryDx=0;entryDy=0;entryPerimeter=0;" edge="1" parent="1" source="fM9ERTei-pjhAEtj_w_p-42">
          <mxGeometry relative="1" as="geometry">
            <mxPoint x="177.97000000000003" y="618.98" as="targetPoint" />
          </mxGeometry>
        </mxCell>
        <mxCell id="fM9ERTei-pjhAEtj_w_p-63" style="edgeStyle=orthogonalEdgeStyle;rounded=0;orthogonalLoop=1;jettySize=auto;html=1;exitX=0.25;exitY=1;exitDx=0;exitDy=0;entryX=0;entryY=0.5;entryDx=0;entryDy=0;" edge="1" parent="1" source="fM9ERTei-pjhAEtj_w_p-42" target="fM9ERTei-pjhAEtj_w_p-49">
          <mxGeometry relative="1" as="geometry" />
        </mxCell>
        <mxCell id="fM9ERTei-pjhAEtj_w_p-42" value="Cadastrar Cliente" style="rounded=0;whiteSpace=wrap;html=1;" vertex="1" parent="1">
          <mxGeometry x="30" y="520" width="170" height="60" as="geometry" />
        </mxCell>
        <mxCell id="fM9ERTei-pjhAEtj_w_p-58" style="edgeStyle=orthogonalEdgeStyle;rounded=0;orthogonalLoop=1;jettySize=auto;html=1;entryX=0.5;entryY=0;entryDx=0;entryDy=0;exitX=0.491;exitY=1.009;exitDx=0;exitDy=0;exitPerimeter=0;" edge="1" parent="1" source="fM9ERTei-pjhAEtj_w_p-43">
          <mxGeometry relative="1" as="geometry">
            <mxPoint x="320" y="580" as="sourcePoint" />
            <mxPoint x="210" y="620" as="targetPoint" />
            <Array as="points">
              <mxPoint x="315" y="581" />
              <mxPoint x="315" y="600" />
              <mxPoint x="210" y="600" />
            </Array>
          </mxGeometry>
        </mxCell>
        <mxCell id="fM9ERTei-pjhAEtj_w_p-61" style="edgeStyle=orthogonalEdgeStyle;rounded=0;orthogonalLoop=1;jettySize=auto;html=1;exitX=0.75;exitY=1;exitDx=0;exitDy=0;" edge="1" parent="1" source="fM9ERTei-pjhAEtj_w_p-43" target="fM9ERTei-pjhAEtj_w_p-47">
          <mxGeometry relative="1" as="geometry" />
        </mxCell>
        <mxCell id="fM9ERTei-pjhAEtj_w_p-43" value="Cadastrar Veiculos" style="rounded=0;whiteSpace=wrap;html=1;" vertex="1" parent="1">
          <mxGeometry x="230" y="520" width="170" height="60" as="geometry" />
        </mxCell>
        <mxCell id="fM9ERTei-pjhAEtj_w_p-65" style="edgeStyle=orthogonalEdgeStyle;rounded=0;orthogonalLoop=1;jettySize=auto;html=1;exitX=0.5;exitY=1;exitDx=0;exitDy=0;entryX=0.5;entryY=0;entryDx=0;entryDy=0;" edge="1" parent="1" source="fM9ERTei-pjhAEtj_w_p-44" target="fM9ERTei-pjhAEtj_w_p-46">
          <mxGeometry relative="1" as="geometry" />
        </mxCell>
        <mxCell id="fM9ERTei-pjhAEtj_w_p-44" value="Gerenciar Pátio" style="rounded=0;whiteSpace=wrap;html=1;" vertex="1" parent="1">
          <mxGeometry x="440" y="520" width="170" height="60" as="geometry" />
        </mxCell>
        <mxCell id="fM9ERTei-pjhAEtj_w_p-66" style="edgeStyle=orthogonalEdgeStyle;rounded=0;orthogonalLoop=1;jettySize=auto;html=1;exitX=0.5;exitY=1;exitDx=0;exitDy=0;entryX=1;entryY=0.5;entryDx=0;entryDy=0;" edge="1" parent="1" source="fM9ERTei-pjhAEtj_w_p-45" target="fM9ERTei-pjhAEtj_w_p-49">
          <mxGeometry relative="1" as="geometry" />
        </mxCell>
        <mxCell id="fM9ERTei-pjhAEtj_w_p-45" value="Filtrar Demanda" style="rounded=0;whiteSpace=wrap;html=1;" vertex="1" parent="1">
          <mxGeometry x="640" y="520" width="170" height="60" as="geometry" />
        </mxCell>
        <mxCell id="fM9ERTei-pjhAEtj_w_p-67" style="edgeStyle=orthogonalEdgeStyle;rounded=0;orthogonalLoop=1;jettySize=auto;html=1;exitX=0.5;exitY=1;exitDx=0;exitDy=0;entryX=0.75;entryY=0;entryDx=0;entryDy=0;" edge="1" parent="1" source="fM9ERTei-pjhAEtj_w_p-46" target="fM9ERTei-pjhAEtj_w_p-49">
          <mxGeometry relative="1" as="geometry" />
        </mxCell>
        <mxCell id="fM9ERTei-pjhAEtj_w_p-46" value="Gerar relatório do Pátio" style="rounded=0;whiteSpace=wrap;html=1;" vertex="1" parent="1">
          <mxGeometry x="440" y="620" width="170" height="60" as="geometry" />
        </mxCell>
        <mxCell id="fM9ERTei-pjhAEtj_w_p-62" style="edgeStyle=orthogonalEdgeStyle;rounded=0;orthogonalLoop=1;jettySize=auto;html=1;exitX=0.5;exitY=1;exitDx=0;exitDy=0;entryX=0.25;entryY=0;entryDx=0;entryDy=0;" edge="1" parent="1" source="fM9ERTei-pjhAEtj_w_p-47" target="fM9ERTei-pjhAEtj_w_p-49">
          <mxGeometry relative="1" as="geometry" />
        </mxCell>
        <mxCell id="fM9ERTei-pjhAEtj_w_p-47" value="Cadastrar Manutenção" style="rounded=0;whiteSpace=wrap;html=1;" vertex="1" parent="1">
          <mxGeometry x="230" y="710" width="170" height="60" as="geometry" />
        </mxCell>
        <mxCell id="fM9ERTei-pjhAEtj_w_p-49" value="Encerrar sistema" style="rounded=0;whiteSpace=wrap;html=1;" vertex="1" parent="1">
          <mxGeometry x="320" y="830" width="170" height="60" as="geometry" />
        </mxCell>
        <mxCell id="fM9ERTei-pjhAEtj_w_p-64" style="edgeStyle=orthogonalEdgeStyle;rounded=0;orthogonalLoop=1;jettySize=auto;html=1;exitX=0.5;exitY=1;exitDx=0;exitDy=0;entryX=0;entryY=0.25;entryDx=0;entryDy=0;" edge="1" parent="1" source="fM9ERTei-pjhAEtj_w_p-60" target="fM9ERTei-pjhAEtj_w_p-49">
          <mxGeometry relative="1" as="geometry" />
        </mxCell>
        <mxCell id="fM9ERTei-pjhAEtj_w_p-60" value="Realizar Locação" style="rounded=0;whiteSpace=wrap;html=1;" vertex="1" parent="1">
          <mxGeometry x="110" y="620" width="170" height="60" as="geometry" />
        </mxCell>
      </root>
    </mxGraphModel>
  </diagram>
</mxfile>
